<svg xmlns="http://www.w3.org/2000/svg" xmlns:xlink="http://www.w3.org/1999/xlink" width="197" height="43.408" viewBox="0 0 197 43.408">
  <defs>
    <clipPath id="clip-path">
      <rect id="Rectangle_1" data-name="Rectangle 1" width="197" height="43.408" fill="#fff"/>
    </clipPath>
  </defs>
  <g id="logo_white" clip-path="url(#clip-path)">
    <path id="Path_1" data-name="Path 1" d="M19.553,5.723a19.557,19.557,0,0,0,0,39.115c.651,0,1.286-.033,1.92-.091A4.939,4.939,0,0,1,17.8,38.122,12.964,12.964,0,1,1,32.4,23.5a4.785,4.785,0,0,1,1.665-.3,4.965,4.965,0,0,1,4.507,2.908,4.805,4.805,0,0,1,.4,1.476,19.325,19.325,0,0,0,.14-2.3A19.563,19.563,0,0,0,19.553,5.723" transform="translate(0 -1.43)" fill="#fff"/>
    <path id="Path_2" data-name="Path 2" d="M28.806,48.111A2.184,2.184,0,1,1,26.6,50.3a2.2,2.2,0,0,1,2.2-2.189" transform="translate(-6.646 -12.019)" fill="#ff9e00"/>
    <path id="Path_3" data-name="Path 3" d="M44.81,32.305a2.184,2.184,0,1,1-2.2,2.189,2.2,2.2,0,0,1,2.2-2.189" transform="translate(-10.644 -8.071)" fill="#ff9e00"/>
    <path id="Path_4" data-name="Path 4" d="M42.6,50.289a2.208,2.208,0,1,1,2.2,2.189,2.2,2.2,0,0,1-2.2-2.189" transform="translate(-10.642 -12.019)" fill="#ff9e00"/>
    <path id="Path_5" data-name="Path 5" d="M36.808,51.383A2.184,2.184,0,1,1,34.6,53.567a2.2,2.2,0,0,1,2.209-2.184" transform="translate(-8.644 -12.837)" fill="#ff9e00"/>
    <path id="Path_6" data-name="Path 6" d="M25.506,40.2A2.184,2.184,0,1,1,23.3,42.386,2.2,2.2,0,0,1,25.506,40.2" transform="translate(-5.82 -10.043)" fill="#ff9e00"/>
    <path id="Path_7" data-name="Path 7" d="M26.607,34.47a2.208,2.208,0,1,1,2.2,2.189,2.2,2.2,0,0,1-2.2-2.189" transform="translate(-6.647 -8.067)" fill="#ff9e00"/>
    <path id="Path_8" data-name="Path 8" d="M36.819,29.02A2.184,2.184,0,1,1,34.61,31.2a2.2,2.2,0,0,1,2.209-2.184" transform="translate(-8.647 -7.25)" fill="#ff9e00"/>
    <path id="Path_9" data-name="Path 9" d="M48.122,40.2a2.184,2.184,0,1,1-2.209,2.185A2.2,2.2,0,0,1,48.122,40.2" transform="translate(-11.47 -10.043)" fill="#ff9e00"/>
    <path id="Path_10" data-name="Path 10" d="M81.918,41.562H61.368V12.3h6.757V35.374H84.547Z" transform="translate(-15.331 -3.073)" fill="#fff"/>
    <path id="Path_11" data-name="Path 11" d="M111.723,12.425l-.05-.123h-6.122L93.1,41.554h6.913l2.555-6.262h11.914l2.554,6.262h7.079Zm-7.342,17.263,4.136-10.1,4.136,10.1Z" transform="translate(-23.259 -3.073)" fill="#fff"/>
    <path id="Path_12" data-name="Path 12" d="M147.747,41.883c-8.908,0-15.367-6.328-15.367-15.038v-.083a15.062,15.062,0,0,1,15.325-15.12c4.8,0,8.116,1.161,11.463,4l.157.132-4.261,5.133-.156-.132a10.376,10.376,0,0,0-7.408-2.875c-4.449,0-8.076,3.938-8.076,8.775v.083c0,5.183,3.584,8.941,8.529,8.941a9.974,9.974,0,0,0,5.767-1.632V30.265h-6.385V24.373h12.937V37.2l-.074.066a18.834,18.834,0,0,1-12.451,4.614" transform="translate(-33.072 -2.909)" fill="#fff"/>
    <path id="Path_13" data-name="Path 13" d="M196.545,41.554H174.173V12.3h22.372v6.056H180.889V23.8h12.937v6.057H180.889V35.5h15.656Z" transform="translate(-43.513 -3.073)" fill="#fff"/>
    <path id="Path_14" data-name="Path 14" d="M227.018,31.147a9.167,9.167,0,0,0,6.073-9.039v-.083c0-6.09-4.145-9.723-11.083-9.723h-13.39V41.554h6.757V32.325h4.672l6.18,9.229h7.918Zm-.362-8.71c0,2.645-1.944,4.284-5.067,4.284h-6.633V18.03h6.509c3.3,0,5.191,1.573,5.191,4.325Z" transform="translate(-52.119 -3.073)" fill="#fff"/>
    <path id="Path_15" data-name="Path 15" d="M250.274,1.17v4.6H249V1.17H247.25V0h4.779V1.17Z" transform="translate(-61.77 0)" fill="#fff"/>
    <path id="Path_16" data-name="Path 16" d="M259.424,5.768V2L257.8,4.466h-.033l-1.607-2.44V5.768h-1.244V0h1.368L257.8,2.439,259.317,0h1.368V5.768Z" transform="translate(-63.685 0)" fill="#fff"/>
  </g>
</svg>
