<svg xmlns="http://www.w3.org/2000/svg" width="168" height="26" viewBox="0 0 168 26">
  <g id="made" transform="translate(-1132 -7796)">
    <text id="Made_by" data-name="Made by" transform="translate(1132 7812)" fill="#272727" font-size="16" font-family="Lato-Light, Lato" font-weight="300" letter-spacing="0.02em" opacity="0.8"><tspan x="0" y="0">Made by</tspan></text>
    <g id="Group_168" data-name="Group 168" transform="translate(1124.068 7656.429)">
      <g id="Group_165" data-name="Group 165" transform="translate(75.915 140.42)">
        <path id="Path_109" data-name="Path 109" d="M97.458,146.075a6.243,6.243,0,0,0-5.053-2.291,7.278,7.278,0,0,0-4.953,2.358,6.753,6.753,0,0,0-5.018-2.358,6.165,6.165,0,0,0-4.615,1.979,6.676,6.676,0,0,0-1.9,4.809v10.739h6.3l10.459,0-.017,0h6.3V151.279a7.9,7.9,0,0,0-1.5-5.2" transform="translate(-75.915 -143.783)" fill="#ff9e00"/>
        <path id="Path_110" data-name="Path 110" d="M212.313,146.167a8.6,8.6,0,0,0-6.425-2.383,8.735,8.735,0,0,0-.565,17.459c1.013.023,2.029.063,3.041.063V161.3h6.3v-8.623a8.869,8.869,0,0,0-2.35-6.511" transform="translate(-172.686 -143.783)" fill="#ff9e00"/>
        <path id="Path_111" data-name="Path 111" d="M306.56,146.394a9.872,9.872,0,0,0-12.959-.361,7.108,7.108,0,0,0-2.536,5.533v9.762h17.48V152.07a7.79,7.79,0,0,0-1.985-5.677" transform="translate(-247.68 -143.783)" fill="#ff9e00"/>
        <path id="Path_112" data-name="Path 112" d="M494.83,146.349a8.324,8.324,0,0,0-6.123-2.569,8.831,8.831,0,0,0-6.4,2.518,8.312,8.312,0,0,0-2.6,6.207,8.4,8.4,0,0,0,2.6,6.191,8.883,8.883,0,0,0,12.488.008,8.713,8.713,0,0,0,.035-12.354" transform="translate(-398.285 -143.78)" fill="#ff9e00"/>
        <path id="Path_113" data-name="Path 113" d="M400.869,146.167a8.6,8.6,0,0,0-6.426-2.383,8.735,8.735,0,0,0-.566,17.459c.964.023,1.93.058,2.893.061a3.606,3.606,0,0,1-.493.809,3.92,3.92,0,0,1-2.934,1.179,5.137,5.137,0,0,1-2.494-.674v5.727a6.454,6.454,0,0,0,1.632.434,8.422,8.422,0,0,0,6.175-1.234,10.6,10.6,0,0,0,1.419-1.063A10.3,10.3,0,0,0,401.3,165.2a8.925,8.925,0,0,0,1.781-4.48,14.929,14.929,0,0,0,.114-1.853v-.337l.021-.139v-5.71a8.869,8.869,0,0,0-2.35-6.511" transform="translate(-323.219 -143.783)" fill="#ff9e00"/>
      </g>
      <g id="Group_166" data-name="Group 166" transform="translate(76.837 139.571)">
        <path id="Path_114" data-name="Path 114" d="M102.03,141.862a6.246,6.246,0,0,0-5.053-2.29,7.278,7.278,0,0,0-4.953,2.359,6.751,6.751,0,0,0-5.018-2.359,6.165,6.165,0,0,0-4.615,1.979,6.678,6.678,0,0,0-1.9,4.809V157.1h6.3l10.459-.005-.017.005h6.3V147.068a7.907,7.907,0,0,0-1.5-5.205" transform="translate(-80.487 -139.572)" fill="#ff9e00"/>
        <path id="Path_115" data-name="Path 115" d="M216.889,141.957a8.6,8.6,0,0,0-6.425-2.383,8.735,8.735,0,0,0-.566,17.458c1.014.024,2.03.064,3.041.064v0h6.3v-8.623a8.869,8.869,0,0,0-2.35-6.51" transform="translate(-177.261 -139.573)" fill="#ff9e00"/>
        <path id="Path_116" data-name="Path 116" d="M312.272,142.181a9.871,9.871,0,0,0-12.959-.361,7.106,7.106,0,0,0-2.537,5.533v9.762h17.481v-9.257a7.792,7.792,0,0,0-1.985-5.676" transform="translate(-253.161 -139.571)" fill="#ff9e00"/>
        <path id="Path_117" data-name="Path 117" d="M499.4,142.14a8.326,8.326,0,0,0-6.124-2.569,8.837,8.837,0,0,0-6.4,2.518,8.318,8.318,0,0,0-2.6,6.207,8.4,8.4,0,0,0,2.6,6.19,8.886,8.886,0,0,0,12.49.008,8.717,8.717,0,0,0,.034-12.355" transform="translate(-402.859 -139.571)" fill="#ff9e00"/>
        <path id="Path_118" data-name="Path 118" d="M405.443,141.957a8.607,8.607,0,0,0-6.426-2.383,8.735,8.735,0,0,0-.566,17.458c.964.023,1.93.058,2.893.061a3.532,3.532,0,0,1-.493.81,3.917,3.917,0,0,1-2.934,1.179,5.139,5.139,0,0,1-2.493-.674v5.728a6.463,6.463,0,0,0,1.632.433,8.428,8.428,0,0,0,6.174-1.234,10.714,10.714,0,0,0,1.42-1.063,10.459,10.459,0,0,0,1.228-1.287,8.923,8.923,0,0,0,1.78-4.479,14.956,14.956,0,0,0,.113-1.852v-.338l.021-.139v-5.709a8.866,8.866,0,0,0-2.349-6.51" transform="translate(-327.792 -139.573)" fill="#ff9e00"/>
      </g>
      <g id="Group_167" data-name="Group 167" transform="translate(157.545 158.913)">
        <path id="Path_119" data-name="Path 119" d="M483.7,242.767a1.084,1.084,0,1,0-2.169,0v1.9h-.815v-1.9a1.9,1.9,0,0,1,3.242-1.344,1.878,1.878,0,0,1,.148.165c.045-.057.1-.112.147-.165a1.9,1.9,0,0,1,3.243,1.344v1.9h-.813v-1.9a1.085,1.085,0,1,0-2.169,0v1.9H483.7Z" transform="translate(-480.72 -239.783)" fill="#ff9e00"/>
        <rect id="Rectangle_23" data-name="Rectangle 23" width="0.814" height="3.794" transform="translate(7.996 1.086)" fill="#ff9e00"/>
        <path id="Path_120" data-name="Path 120" d="M530.889,244.671h-.813v-1.9a1.9,1.9,0,1,1,3.8,0v1.9h-.813v-1.9a1.085,1.085,0,0,0-2.171,0Z" transform="translate(-520.123 -239.789)" fill="#ff9e00"/>
        <path id="Path_121" data-name="Path 121" d="M556.067,235.494v1.419a1.9,1.9,0,1,0,.814,1.565v-2.983Zm-1.084,4.036a1.087,1.087,0,1,1,1.087-1.088A1.087,1.087,0,0,1,554.983,239.53Z" transform="translate(-538.493 -235.493)" fill="#ff9e00"/>
        <path id="Path_122" data-name="Path 122" d="M520.787,236.3a.392.392,0,0,1-.288-.119.387.387,0,0,1-.118-.286.406.406,0,0,1,.406-.408.407.407,0,0,1,0,.814" transform="translate(-512.383 -235.49)" fill="#ff9e00"/>
      </g>
    </g>
  </g>
</svg>
