<svg xmlns="http://www.w3.org/2000/svg" width="21" height="21" viewBox="0 0 21 21">
  <path id="tw" d="M18.75,1.5H2.25A2.251,2.251,0,0,0,0,3.75v16.5A2.251,2.251,0,0,0,2.25,22.5h16.5A2.251,2.251,0,0,0,21,20.25V3.75A2.251,2.251,0,0,0,18.75,1.5ZM16.458,8.944c.009.131.009.267.009.4A8.687,8.687,0,0,1,7.72,18.089,8.707,8.707,0,0,1,3,16.711a6.477,6.477,0,0,0,.741.038,6.164,6.164,0,0,0,3.816-1.312A3.078,3.078,0,0,1,4.683,13.3a3.313,3.313,0,0,0,1.388-.056,3.075,3.075,0,0,1-2.461-3.019v-.038A3.072,3.072,0,0,0,5,10.58,3.068,3.068,0,0,1,3.628,8.02a3.036,3.036,0,0,1,.417-1.552,8.729,8.729,0,0,0,6.338,3.216,3.081,3.081,0,0,1,5.245-2.808,6.024,6.024,0,0,0,1.95-.741,3.066,3.066,0,0,1-1.35,1.692A6.118,6.118,0,0,0,18,7.35a6.471,6.471,0,0,1-1.542,1.594Z" transform="translate(0 -1.5)" fill="#ff9e00"/>
</svg>
