<svg xmlns="http://www.w3.org/2000/svg" width="23.997" height="18.001" viewBox="0 0 23.997 18.001">
  <path id="you" d="M23.841,6.975a3.644,3.644,0,0,0-3.469-3.806C17.775,3.047,15.127,3,12.422,3h-.844c-2.7,0-5.353.047-7.95.169A3.652,3.652,0,0,0,.164,6.984C.047,8.653,0,10.322,0,11.991S.047,15.328.159,17a3.656,3.656,0,0,0,3.464,3.82C6.352,20.948,9.15,21,12,21s5.639-.047,8.372-.178A3.657,3.657,0,0,0,23.836,17c.112-1.673.164-3.342.159-5.016S23.953,8.648,23.841,6.975ZM9.7,16.589V7.378l6.8,4.6Z" transform="translate(0 -3)" fill="#ff9e00"/>
</svg>
